PathFileType	4	(X/Y/Z)	Apose_0-49.trc
DataRate	CameraRate	NumFrames	NumMarkers	Units	OrigDataRate	OrigDataStartFrame	OrigNumFrames
30	30	5	22	m	30	0	49
Frame#	Time	Hip			RHip			RKnee			RAnkle			RBigToe			RSmallToe			RHeel			LHip			LKnee			LAnkle			LBigToe			LSmallToe			LHeel			Neck			Head			Nose			RShoulder			RElbow			RWrist			LShoulder			LElbow			LWrist		
		X1	Y1	Z1	X2	Y2	Z2	X3	Y3	Z3	X4	Y4	Z4	X5	Y5	Z5	X6	Y6	Z6	X7	Y7	Z7	X8	Y8	Z8	X9	Y9	Z9	X10	Y10	Z10	X11	Y11	Z11	X12	Y12	Z12	X13	Y13	Z13	X14	Y14	Z14	X15	Y15	Z15	X16	Y16	Z16	X17	Y17	Z17	X18	Y18	Z18	X19	Y19	Z19	X20	Y20	Z20	X21	Y21	Z21	X22	Y22	Z22
1	0.0333333333333333	0.6698294892862793	0.898357518526327	0.324829680770025	0.6667641200793395	0.8630891776436598	0.2367795833810064	0.6564149492750571	0.49364591893803544	0.22627021337594233	0.7039479193397187	0.11676489995593252	0.2348930939968884	0.5236614302796804	0.030073725058344703	0.21784343617803098	0.5673151863890324	0.02844671422421668	0.15866661437628946	0.752227287141059	0.03612971162374064	0.24528224504974028	0.6800815407100135	0.8610334872998346	0.4154702124752165	0.6683541449733718	0.49255651671437745	0.4107561842278558	0.7180522699292363	0.10924147459524312	0.4050785268112421	0.5431663720831866	0.025842091294283477	0.42294174791620526	0.5769185940624745	0.032257237290369535	0.4776285866718608	0.7692652521539838	0.036104186766646396	0.39375906381039255	0.6600394515926372	1.4904557478794107	0.33809582394818716	0.6549415361379485	1.7226340532479154	0.32136243703167267	0.5148723364880325	1.588798833550855	0.32887269152884185	0.6982707639937508	1.4215074440767597	0.15255777904252513	0.7336594781894025	1.3289137451759458	-0.07653988468364334	0.7061118618282068	1.3300663821393284	-0.3333192448232214	0.6771370972454208	1.4194179930000301	0.5101435753564365	0.7016256471603154	1.3241250376308729	0.7415994615018838	0.6730548793235535	1.3388925868534727	0.9876734507936222
2	0.0666666666666666	0.669018281239944	0.8999427118599361	0.3254227145927574	0.6650932857773626	0.8659457966518394	0.23711167880529868	0.6568770271866382	0.4951548131534726	0.22734465533403866	0.7027221925020315	0.11586006710055993	0.23406960964386386	0.5226573451341371	0.03014252625369859	0.21942655925873475	0.5643047040736575	0.026606646213583635	0.1598116248138933	0.7465097217192824	0.03907476299289739	0.24668322462614706	0.6796442484333285	0.8651051391002188	0.4181872005667445	0.6671925082923851	0.4927096837237114	0.4112188614132411	0.7180513586018683	0.1101456473173103	0.4045359269916715	0.5406973698216921	0.027013606290016166	0.42294183195032664	0.5785714423081884	0.029117698179297814	0.4771141628738321	0.7697051514858556	0.036039618779141865	0.3948570513678532	0.6612739372768757	1.4896127129097887	0.33523229208667954	0.6250774282965135	1.726070934409378	0.34287050598610974	0.5206022041850358	1.5953435601490658	0.32975893616034646	0.6971743705562533	1.4218309578512967	0.15278099127535225	0.7362351455935982	1.3282976242557778	-0.0777510332072008	0.7009391013059808	1.3264024608334128	-0.33675019998893685	0.6826435774182507	1.4189125447080428	0.5108050518932387	0.7045580695977648	1.3249183117077699	0.7392653985215107	0.67552684061733	1.3382737241095897	0.9879890308568628
3	0.1	0.6682908174538591	0.9012819796522883	0.32576760615224293	0.6636090207052722	0.8684313462569865	0.23730138319230215	0.6568176592359688	0.49601531990375053	0.2279481297722424	0.7017005934429694	0.11508667992604292	0.23339922832215823	0.5217506371894826	0.030279885004736294	0.22063750179686176	0.561623647019121	0.025357580277619265	0.1606893861124305	0.7418102055287402	0.04138584239442901	0.2478428928680687	0.6793282713473305	0.8686080634036386	0.42047690829842593	0.6662872885449483	0.49275266080855773	0.41164547169939164	0.7181076622009235	0.11078969472671157	0.4041499329481321	0.53953504757151	0.02747692230744809	0.42223824939670485	0.5797599294479364	0.026630047689306654	0.47656502189930694	0.769972937955135	0.036059989150242056	0.3958458615128712	0.6622371023870801	1.4888894716918073	0.332764717766914	0.5987755619092994	1.7290023968431614	0.3617390878930101	0.5250590575121565	1.6004789771756331	0.33047657319443363	0.6952246198912458	1.4219836797769945	0.15282751262342792	0.7383682147093031	1.32780753277783	-0.07884080344595597	0.6957345612012218	1.3231327149390995	-0.33916388268626213	0.6877256219579609	1.4187934991124873	0.5109902592081672	0.7068986054464637	1.3255357926836142	0.7372995961170788	0.6776645412561323	1.337634638729576	0.9882275199920789
4	0.1333333333333333	0.6677460909865887	0.9022089373487773	0.3257958788973744	0.6624793059833632	0.8702388517314185	0.23729244017567983	0.6560377818303188	0.4960091667350159	0.22798936133976333	0.7009677362348874	0.1145222760318638	0.2329610470603974	0.5209871260693547	0.03053529610023447	0.22129103519711196	0.5595854018726348	0.024869240779331062	0.16115931662499855	0.7385700870091134	0.04276828884794941	0.2485923123851948	0.6791584203105492	0.8711048478887704	0.42207541715276187	0.665862299683421	0.4925998006692166	0.41210123042975655	0.7181934931709961	0.1111477504618207	0.40397705042800885	0.5402473662592834	0.026926787534366194	0.42059270389640857	0.5803239222715004	0.025090894992849045	0.4760053997550117	0.7700416425455131	0.036170785300077765	0.39666939406323626	0.6627876773946056	1.4883693231744153	0.33096841314130865	0.5787349796785797	1.731078576511308	0.37603690358257713	0.5275701583839721	1.6036672966803822	0.3310516527428939	0.6922530989088824	1.421899425972708	0.15275063373991193	0.7397798406602468	1.3275411758570863	-0.07970562960860275	0.6909058553876232	1.320661286658361	-0.34013301786386885	0.6921057176815428	1.419419117820612	0.5102523426002006	0.7084000381962551	1.3259256457523192	0.7359497879505534	0.6792015293744222	1.337030714963154	0.9883399862892045
5	0.1666666666666666	0.6674399095171216	0.9027186556552897	0.3256021958929043	0.6617981047893106	0.8713078757576492	0.23715697600692254	0.6547343299056889	0.4954165894844573	0.22769155922858772	0.7004946552805947	0.11414249882321065	0.23273278404794687	0.5203736375548202	0.030921319448825667	0.22143418256122843	0.5583501820008324	0.024950920678076718	0.16122633117393828	0.7366782145747875	0.04332025518203239	0.24891375463122883	0.6790726336122515	0.8725319220575521	0.4229954115640305	0.6660218542538816	0.4922397176189867	0.4126972971602211	0.7182080428234572	0.11136450085802099	0.40396557810994466	0.5423467004794131	0.025631504561812273	0.4183719564512752	0.580401381199626	0.02441163651062601	0.4755233809734446	0.7699769319226847	0.03633607476610321	0.3973227916199688	0.6629289520192014	1.4880528373133388	0.329898429692145	0.5655759241618813	1.7322587969568668	0.3853790986392602	0.5280089223398695	1.6051912719168318	0.33174075326001795	0.6889642391399945	1.4216885088234834	0.1527139992443757	0.7404303269672134	1.3275180432904718	-0.08030610840939356	0.6870878112978844	1.3191790413131015	-0.34003750082827866	0.6957013352363017	1.4209016282807507	0.5084475685756907	0.7091580279959747	1.3261410799280178	0.7352401169480359	0.6800370724974583	1.3365673031803487	0.9883359133831242
